<svg height="512" viewBox="0 0 64 64" width="512" xmlns="http://www.w3.org/2000/svg" xmlns:xlink="http://www.w3.org/1999/xlink"><linearGradient id="linear-gradient" gradientUnits="userSpaceOnUse" x1="-2.121" x2="58.73" y1="61.121" y2=".27"><stop offset="0" stop-color="#003f8a"/><stop offset=".518" stop-color="#00d7df"/><stop offset="1" stop-color="#006df0"/></linearGradient><linearGradient id="linear-gradient-2" x1=".379" x2="61.23" xlink:href="#linear-gradient" y1="63.621" y2="2.77"/><path d="m57 26a6 6 0 0 0 -5.912 5.018c-.031 0-.057-.018-.088-.018h-2c-.018 0-.033.009-.05.01a16.906 16.906 0 0 0 -4.265-10.288c.007-.007.016-.008.022-.015l4-4a.97.97 0 0 0 .206-.311 3.962 3.962 0 0 0 2.087.604 4 4 0 1 0 -4-4 3.962 3.962 0 0 0 .6 2.087.97.97 0 0 0 -.311.206l-4 4c-.007.006-.008.015-.015.022a16.906 16.906 0 0 0 -10.284-4.265c0-.017.01-.032.01-.05v-4a.826.826 0 0 0 -.02-.1 5 5 0 1 0 -1.96 0 .826.826 0 0 0 -.02.1v4c0 .018.009.033.01.05a16.906 16.906 0 0 0 -10.288 4.265c-.007-.007-.008-.016-.015-.022l-9-9a.97.97 0 0 0 -.311-.206 3.962 3.962 0 0 0 .604-2.087 4 4 0 1 0 -4 4 3.962 3.962 0 0 0 2.087-.6.97.97 0 0 0 .206.311l9 9c.006.007.015.008.022.015a16.906 16.906 0 0 0 -4.265 10.284c-.017 0-.032-.01-.05-.01h-2c-.031 0-.057.015-.088.018a6 6 0 1 0 0 1.964c.031 0 .057.018.088.018h2c.018 0 .033-.009.05-.01a16.9 16.9 0 0 0 4.209 10.226.929.929 0 0 0 .173.192 16.942 16.942 0 0 0 11.578 5.542c0 .017-.01.032-.01.05v4a.826.826 0 0 0 .02.1 5 5 0 1 0 1.96 0 .826.826 0 0 0 .02-.1v-4c0-.018-.009-.033-.01-.05a16.906 16.906 0 0 0 10.288-4.265c.007.007.008.016.015.022l4 4a.97.97 0 0 0 .311.206 3.962 3.962 0 0 0 -.604 2.087 4 4 0 1 0 4-4 3.962 3.962 0 0 0 -2.087.6.97.97 0 0 0 -.206-.311l-4-4c.017-.022.023-.05.038-.074a16.9 16.9 0 0 0 4.205-10.225c.017 0 .032.01.05.01h2c.031 0 .057-.015.088-.018a6 6 0 1 0 5.912-6.982zm-6-15a2 2 0 1 1 -2 2 2 2 0 0 1 2-2zm-43-1a2 2 0 1 1 2-2 2 2 0 0 1 -2 2zm-1 26a4 4 0 1 1 4-4 4 4 0 0 1 -4 4zm44 13a2 2 0 1 1 -2 2 2 2 0 0 1 2-2zm-22-43a3 3 0 1 1 3 3 3 3 0 0 1 -3-3zm6 52a3 3 0 1 1 -3-3 3 3 0 0 1 3 3zm-3-11a14.943 14.943 0 0 1 -10.859-4.682 11.024 11.024 0 0 1 8.089-9.345 1 1 0 0 0 .232-1.86 4.331 4.331 0 0 1 -2.462-4.113 5 5 0 0 1 10 0 4.331 4.331 0 0 1 -2.462 4.113 1 1 0 0 0 .232 1.86 11.024 11.024 0 0 1 8.089 9.345 14.943 14.943 0 0 1 -10.859 4.682zm12.479-6.691a13.083 13.083 0 0 0 -7.313-8.643 6.317 6.317 0 0 0 1.834-4.666 7 7 0 0 0 -14 0 6.317 6.317 0 0 0 1.834 4.666 13.083 13.083 0 0 0 -7.313 8.643 15 15 0 1 1 24.958 0zm12.521-4.309a4 4 0 1 1 4-4 4 4 0 0 1 -4 4z" fill="url(#linear-gradient)"/><g fill="url(#linear-gradient-2)"><path d="m13.293 49.293-4 4a.97.97 0 0 0 -.206.311 3.962 3.962 0 0 0 -2.087-.604 4 4 0 1 0 4 4 3.962 3.962 0 0 0 -.6-2.087.97.97 0 0 0 .311-.206l4-4a1 1 0 0 0 -1.414-1.414zm-6.293 9.707a2 2 0 1 1 2-2 2 2 0 0 1 -2 2z"/><path d="m17.293 45.293-2 2a1 1 0 1 0 1.414 1.414l2-2a1 1 0 0 0 -1.414-1.414z"/><path d="m56 9a1 1 0 0 0 .707-.293l2-2a1 1 0 1 0 -1.414-1.414l-2 2a1 1 0 0 0 .707 1.707z"/></g></svg>