<svg height="496pt" viewBox="0 0 496 496" width="496pt" xmlns="http://www.w3.org/2000/svg" xmlns:xlink="http://www.w3.org/1999/xlink"><linearGradient id="lg1"><stop offset="0" stop-color="#003f8a"/><stop offset=".518" stop-color="#00d7df"/><stop offset="1" stop-color="#006df0"/></linearGradient><linearGradient id="linear0" gradientUnits="userSpaceOnUse" x1="-68.632" x2="446.96" xlink:href="#lg1" y1="452.526003" y2="-63.065997"/><linearGradient id="linear1" gradientUnits="userSpaceOnUse" x1="45.168" x2="560.76" xlink:href="#lg1" y1="566.326003" y2="50.734003"/><linearGradient id="linear2" gradientUnits="userSpaceOnUse" x1="19.368" x2="534.96" xlink:href="#lg1" y1="540.526003" y2="24.934003"/><linearGradient id="linear3" gradientUnits="userSpaceOnUse" x1="15.368" x2="530.96" xlink:href="#lg1" y1="536.526003" y2="20.934003"/><linearGradient id="linear4" gradientUnits="userSpaceOnUse" x1="53.368" x2="568.96" xlink:href="#lg1" y1="574.526003" y2="58.934003"/><path d="m248 111.894531c-13.253906 0-24 10.746094-24 24 0 13.253907 10.746094 24 24 24s24-10.746093 24-24c0-13.253906-10.746094-24-24-24zm0 32c-4.417969 0-8-3.582031-8-8s3.582031-8 8-8 8 3.582031 8 8-3.582031 8-8 8zm0 0" fill="url(#linear0)"/><path d="m392 359.894531c-11.449219.023438-22.828125 1.753907-33.769531 5.128907-43.621094-29.066407-37.894531-78.402344-38.230469-79.449219v-5.679688h64c2.976562 0 5.703125-1.652343 7.082031-4.289062 1.382813-2.632813 1.1875-5.816407-.507812-8.261719l-70.574219-101.953125v-85.496094c0-.152343-.078125-.273437-.089844-.417969-.035156-.785156-.191406-1.5625-.460937-2.300781-.042969-.171875-.09375-.339843-.152344-.503906-.328125-.761719-.769531-1.46875-1.3125-2.097656l-64-72c-1.5625-1.644531-3.730469-2.574219-6-2.574219s-4.4375.929688-6 2.574219l-64 72c-.542969.628906-.984375 1.335937-1.3125 2.097656-.058594.164063-.109375.332031-.152344.503906-.269531.738281-.425781 1.515625-.464843 2.300781 0 .144532-.085938.265626-.085938.417969v85.496094l-70.542969 101.953125c-1.695312 2.445312-1.890625 5.628906-.507812 8.261719 1.378906 2.636719 4.105469 4.289062 7.082031 4.289062h64v8c0 .199219.054688.933594.078125 1.136719 2.265625 30.417969-12.328125 59.625-38.015625 76.078125-11.027344-3.429687-22.511719-5.1875-34.0625-5.214844-57.34375 0-104 41.597657-104 92.71875.0585938 13.585938 3.390625 26.957031 9.710938 38.984375 1.378906 2.640625 4.109374 4.296875 7.089843 4.296875h462.398438c2.980469 0 5.710937-1.65625 7.089843-4.296875 6.320313-12.027344 9.652344-25.398437 9.710938-38.984375 0-51.121093-46.65625-92.71875-104-92.71875zm-152-80v-80h16v80zm24-96h-32c-4.417969 0-8 3.582031-8 8v88h-32v-192h112v192h-32v-88c0-4.417969-3.582031-8-8-8zm104.726562 80h-48.726562v-70.402343zm-120.726562-243.960937 46.183594 51.960937h-92.367188zm-120.726562 243.960937 48.726562-70.402343v70.402343zm65.125 32h111.601562c.023438 29.648438 13.546875 57.671875 36.742188 76.136719-7.433594 3.691406-14.398438 8.265625-20.742188 13.621094-18.078125-15.078125-40.503906-23.984375-64-25.414063v-24.34375c0-4.417969-3.582031-8-8-8s-8 3.582031-8 8v24.34375c-23.496094 1.429688-45.921875 10.335938-64 25.414063-6.273438-5.289063-13.148438-9.820313-20.488281-13.496094 23.273437-18.472656 36.851562-46.550781 36.886719-76.261719zm281.777343 184h-452.351562c-3.832031-8.585937-5.816407-17.878906-5.824219-27.28125 0-42.320312 39.480469-76.71875 88-76.71875 24.710938-.296875 48.546875 9.148438 66.34375 26.296875 3.125 3.121094 8.1875 3.121094 11.3125 0 37.273438-35.082031 95.414062-35.082031 132.6875 0 3.125 3.121094 8.1875 3.121094 11.3125 0 17.796875-17.148437 41.632812-26.59375 66.34375-26.296875 48.519531 0 88 34.398438 88 76.71875-.007812 9.402344-1.992188 18.695313-5.824219 27.28125zm0 0" fill="url(#linear1)"/><path d="m244.960938 319.253906c.960937.410156 1.992187.628906 3.039062.640625 3.25.019531 6.1875-1.929687 7.433594-4.933593 1.246094-3 .554687-6.457032-1.753906-8.746094-2.316407-2.238282-5.738282-2.894532-8.71875-1.679688-.96875.40625-1.863282.972656-2.640626 1.679688-.722656.765625-1.292968 1.660156-1.679687 2.640625-.410156.960937-.628906 1.992187-.640625 3.039062.03125 2.117188.859375 4.144531 2.320312 5.679688.765626.722656 1.660157 1.292969 2.640626 1.679687zm0 0" fill="url(#linear2)"/><path d="m152 439.894531h-96c-4.417969 0-8 3.582031-8 8s3.582031 8 8 8h96c4.417969 0 8-3.582031 8-8s-3.582031-8-8-8zm0 0" fill="url(#linear3)"/><path d="m184 439.894531h-8c-4.417969 0-8 3.582031-8 8s3.582031 8 8 8h8c4.417969 0 8-3.582031 8-8s-3.582031-8-8-8zm0 0" fill="url(#linear4)"/></svg>