<svg height="496pt" viewBox="0 -11 496 495" width="496pt" xmlns="http://www.w3.org/2000/svg" xmlns:xlink="http://www.w3.org/1999/xlink"><linearGradient id="lg1"><stop offset="0" stop-color="#003f8a"/><stop offset=".518" stop-color="#00d7df"/><stop offset="1" stop-color="#006df0"/></linearGradient><linearGradient id="linear0" gradientUnits="userSpaceOnUse" x1="-31.68" x2="486.264" xlink:href="#lg1" y1="468.18" y2="-49.764"/><linearGradient id="linear1" gradientUnits="userSpaceOnUse" x1="-5.2" x2="512.744" xlink:href="#lg1" y1="494.66" y2="-23.284"/><linearGradient id="linear2" gradientUnits="userSpaceOnUse" x1="-169.68" x2="348.264" xlink:href="#lg1" y1="330.18" y2="-187.764"/><linearGradient id="linear3" gradientUnits="userSpaceOnUse" x1="-145.68" x2="372.264" xlink:href="#lg1" y1="354.18" y2="-163.764"/><path d="m488 .5h-480c-4.417969 0-8 3.582031-8 8v32c0 4.417969 3.582031 8 8 8h16v344c0 4.417969 3.582031 8 8 8h208v24c.046875.46875.140625.933594.28125 1.382812-11.121094 3.777344-17.875 15.050782-15.960938 26.636719 1.914063 11.589844 11.933594 20.089844 23.679688 20.089844s21.765625-8.5 23.679688-20.089844c1.914062-11.585937-4.839844-22.859375-15.960938-26.636719.140625-.449218.234375-.914062.28125-1.382812v-24h208c4.417969 0 8-3.582031 8-8v-344h16c4.417969 0 8-3.582031 8-8v-32c0-4.417969-3.582031-8-8-8zm-240 456c-4.417969 0-8-3.582031-8-8s3.582031-8 8-8 8 3.582031 8 8-3.582031 8-8 8zm208-72h-416v-336h416zm24-352h-464v-16h464zm0 0" fill="url(#linear0)"/><path d="m113.679688 275.589844-56 72c-2.710938 3.488281-2.082032 8.515625 1.410156 11.230468 3.488281 2.710938 8.515625 2.082032 11.230468-1.410156l50.398438-64.847656 45.601562 45.601562c1.757813 1.769532 4.246094 2.617188 6.71875 2.292969 2.476563-.328125 4.65625-1.789062 5.898438-3.957031l70.78125-122.960938 52.625 52.617188c1.585938 1.585938 3.765625 2.433594 6.003906 2.335938 2.242188-.097657 4.339844-1.128907 5.78125-2.847657l83.238282-99.097656c15.300781 5.492187 32.300781-1.253906 39.667968-15.742187 7.371094-14.492188 2.8125-32.199219-10.636718-41.332032-13.449219-9.128906-31.59375-6.832031-42.339844 5.363282-10.75 12.199218-10.746094 30.484374.003906 42.679687l-76.574219 91.152344-53.832031-53.824219c-1.761719-1.761719-4.238281-2.601562-6.707031-2.277344-2.46875.328125-4.644531 1.785156-5.886719 3.941406l-70.78125 122.953126-44.625-44.617188c-1.605469-1.648438-3.855469-2.503906-6.152344-2.34375-2.292968.144531-4.417968 1.269531-5.824218 3.089844zm294.320312-155.089844c8.835938 0 16 7.164062 16 16s-7.164062 16-16 16-16-7.164062-16-16 7.164062-16 16-16zm0 0" fill="url(#linear1)"/><path d="m64 80.5h48c4.417969 0 8-3.582031 8-8s-3.582031-8-8-8h-48c-4.417969 0-8 3.582031-8 8s3.582031 8 8 8zm0 0" fill="url(#linear2)"/><path d="m136 80.5c3.769531-.039062 6.992188-2.730469 7.699219-6.433594s-1.292969-7.390625-4.785157-8.816406c-3.488281-1.425781-7.5-.195312-9.589843 2.945312-2.085938 3.140626-1.671875 7.316407.996093 9.984376 1.535157 1.460937 3.5625 2.289062 5.679688 2.320312zm0 0" fill="url(#linear3)"/></svg>