<svg height="496pt" viewBox="0 0 496 496" width="496pt" xmlns="http://www.w3.org/2000/svg" xmlns:xlink="http://www.w3.org/1999/xlink"><linearGradient id="a"><stop offset="0" stop-color="#003f8a"/><stop offset=".518" stop-color="#00d7df"/><stop offset="1" stop-color="#006df0"/></linearGradient><linearGradient id="b" gradientUnits="userSpaceOnUse" x1="-103.552" x2="498.664" xlink:href="#a" y1="467.552" y2="-134.664"/><linearGradient id="c" gradientUnits="userSpaceOnUse" x1="-171.544" x2="430.664" xlink:href="#a" y1="399.552" y2="-202.664"/><linearGradient id="d" gradientUnits="userSpaceOnUse" x1="-95.552" x2="506.664" xlink:href="#a" y1="475.552" y2="-126.664"/><linearGradient id="e" gradientUnits="userSpaceOnUse" x1="-133.096" x2="469.12" xlink:href="#a" y1="438" y2="-164.216"/><linearGradient id="f" gradientUnits="userSpaceOnUse" x1="-35.544" x2="566.672" xlink:href="#a" y1="535.552" y2="-66.664"/><linearGradient id="g" gradientUnits="userSpaceOnUse" x1="-37.552" x2="564.664" xlink:href="#a" y1="533.552" y2="-68.664"/><linearGradient id="h" gradientUnits="userSpaceOnUse" x1="-123.552" x2="478.664" xlink:href="#a" y1="447.552" y2="-154.664"/><linearGradient id="i" gradientUnits="userSpaceOnUse" x1="46.448" x2="648.664" xlink:href="#a" y1="617.552" y2="15.336"/><linearGradient id="j" gradientUnits="userSpaceOnUse" x1="-11.552" x2="590.664" xlink:href="#a" y1="559.552" y2="-42.664"/><linearGradient id="k" gradientUnits="userSpaceOnUse" x1="-67.552" x2="534.664" xlink:href="#a" y1="503.552" y2="-98.664"/><linearGradient id="l" gradientUnits="userSpaceOnUse" x1="-79.552" x2="522.664" xlink:href="#a" y1="491.552" y2="-110.664"/><linearGradient id="m" gradientUnits="userSpaceOnUse" x1="112.448" x2="714.664" xlink:href="#a" y1="683.552" y2="81.336"/><linearGradient id="n" gradientUnits="userSpaceOnUse" x1="32.448" x2="634.664" xlink:href="#a" y1="603.552" y2="1.336"/><linearGradient id="o" gradientUnits="userSpaceOnUse" x1="-23.552" x2="578.664" xlink:href="#a" y1="547.552" y2="-54.664"/><linearGradient id="p" gradientUnits="userSpaceOnUse" x1="-35.552" x2="566.664" xlink:href="#a" y1="535.552" y2="-66.664"/><linearGradient id="q" gradientUnits="userSpaceOnUse" x1="76.448" x2="678.664" xlink:href="#a" y1="647.552" y2="45.336"/><linearGradient id="r" gradientUnits="userSpaceOnUse" x1="20.448" x2="622.664" xlink:href="#a" y1="591.552" y2="-10.664"/><path d="m40 192h416c4.417969 0 8-3.582031 8-8v-136c0-4.417969-3.582031-8-8-8h-416c-4.417969 0-8 3.582031-8 8v136c0 4.417969 3.582031 8 8 8zm8-136h400v120h-400zm0 0" fill="url(#b)"/><path d="m114.886719 80.535156c-3.082031-1.1875-6.574219-.363281-8.796875 2.082032l-15.296875 16.796874c-2.03125 2.097657-2.757813 5.128907-1.902344 7.917969.859375 2.789063 3.164063 4.890625 6.019531 5.484375 2.855469.59375 5.808594-.417968 7.707032-2.632812l1.382812-1.519532v35.335938c0 4.417969 3.582031 8 8 8s8-3.582031 8-8v-56c0-3.304688-2.03125-6.269531-5.113281-7.464844zm0 0" fill="url(#c)"/><path d="m264 80c-12.6875-.515625-23.410156 9.3125-24 22 0 4.417969 3.582031 8 8 8s8-3.582031 8-8c0-3.257812 3.664062-6 8-6s8 2.742188 8 6-3.664062 6-8 6c-4.417969 0-8 3.582031-8 8s3.582031 8 8 8c4.335938 0 8 2.742188 8 6s-3.664062 6-8 6-8-2.742188-8-6c0-4.417969-3.582031-8-8-8s-8 3.582031-8 8c1.066406 12.460938 11.492188 22.03125 24 22.03125s22.933594-9.570312 24-22.03125c-.023438-5.191406-1.988281-10.183594-5.503906-14 3.515625-3.816406 5.480468-8.808594 5.503906-14-.589844-12.6875-11.3125-22.515625-24-22zm0 0" fill="url(#d)"/><path d="m200 136h-12c6.390625-5.820312 11.976562-12.46875 16.609375-19.769531 4.457031-7.589844 4.527344-16.980469.183594-24.636719-4.132813-7.238281-11.859375-11.671875-20.191407-11.59375-13.636718.070312-24.640624 11.164062-24.601562 24.800781 0 4.417969 3.582031 8 8 8s8-3.582031 8-8c-.054688-4.800781 3.792969-8.738281 8.59375-8.800781 2.597656-.085938 5.027344 1.289062 6.292969 3.558594 1.503906 2.679687 1.464843 5.960937-.101563 8.601562-5.601562 8.167969-12.277344 15.546875-19.839844 21.9375-3.042968 2.832032-5.992187 5.597656-8.648437 8.277344-2.273437 2.296875-2.9375 5.734375-1.691406 8.714844 1.25 2.980468 4.164062 4.914062 7.394531 4.910156h32c4.417969 0 8-3.582031 8-8s-3.582031-8-8-8zm0 0" fill="url(#e)"/><path d="m400 120h-8v-32c0-3.398438-2.144531-6.425781-5.351562-7.550781-3.207032-1.128907-6.773438-.101563-8.894532 2.550781l-32 40c-1.925781 2.402344-2.300781 5.691406-.96875 8.464844 1.335938 2.773437 4.136719 4.535156 7.214844 4.535156h24v8c0 4.417969 3.582031 8 8 8s8-3.582031 8-8v-8h8c4.417969 0 8-3.582031 8-8s-3.582031-8-8-8zm-24 0h-7.351562l7.351562-9.191406zm0 0" fill="url(#f)"/><path d="m488 0h-480c-4.417969 0-8 3.582031-8 8v480c0 4.417969 3.582031 8 8 8h480c4.417969 0 8-3.582031 8-8v-480c0-4.417969-3.582031-8-8-8zm-8 480h-464v-464h464zm0 0" fill="url(#g)"/><path d="m40 280h72c4.417969 0 8-3.582031 8-8v-48c0-4.417969-3.582031-8-8-8h-72c-4.417969 0-8 3.582031-8 8v48c0 4.417969 3.582031 8 8 8zm8-48h56v32h-56zm0 0" fill="url(#h)"/><path d="m456 216h-80c-4.417969 0-8 3.582031-8 8v48c0 4.417969 3.582031 8 8 8h80c4.417969 0 8-3.582031 8-8v-48c0-4.417969-3.582031-8-8-8zm-8 48h-64v-32h64zm0 0" fill="url(#i)"/><path d="m336 216h-72c-4.417969 0-8 3.582031-8 8v48c0 4.417969 3.582031 8 8 8h72c4.417969 0 8-3.582031 8-8v-48c0-4.417969-3.582031-8-8-8zm-8 48h-56v-32h56zm0 0" fill="url(#j)"/><path d="m224 216h-72c-4.417969 0-8 3.582031-8 8v48c0 4.417969 3.582031 8 8 8h72c4.417969 0 8-3.582031 8-8v-48c0-4.417969-3.582031-8-8-8zm-8 48h-56v-32h56zm0 0" fill="url(#k)"/><path d="m40 368h72c4.417969 0 8-3.582031 8-8v-48c0-4.417969-3.582031-8-8-8h-72c-4.417969 0-8 3.582031-8 8v48c0 4.417969 3.582031 8 8 8zm8-48h56v32h-56zm0 0" fill="url(#l)"/><path d="m456 304h-80c-4.417969 0-8 3.582031-8 8v136c0 4.417969 3.582031 8 8 8h80c4.417969 0 8-3.582031 8-8v-136c0-4.417969-3.582031-8-8-8zm-8 136h-64v-120h64zm0 0" fill="url(#m)"/><path d="m336 304h-72c-4.417969 0-8 3.582031-8 8v48c0 4.417969 3.582031 8 8 8h72c4.417969 0 8-3.582031 8-8v-48c0-4.417969-3.582031-8-8-8zm-8 48h-56v-32h56zm0 0" fill="url(#n)"/><path d="m224 304h-72c-4.417969 0-8 3.582031-8 8v48c0 4.417969 3.582031 8 8 8h72c4.417969 0 8-3.582031 8-8v-48c0-4.417969-3.582031-8-8-8zm-8 48h-56v-32h56zm0 0" fill="url(#o)"/><path d="m40 456h72c4.417969 0 8-3.582031 8-8v-48c0-4.417969-3.582031-8-8-8h-72c-4.417969 0-8 3.582031-8 8v48c0 4.417969 3.582031 8 8 8zm8-48h56v32h-56zm0 0" fill="url(#p)"/><path d="m336 392h-72c-4.417969 0-8 3.582031-8 8v48c0 4.417969 3.582031 8 8 8h72c4.417969 0 8-3.582031 8-8v-48c0-4.417969-3.582031-8-8-8zm-8 48h-56v-32h56zm0 0" fill="url(#q)"/><path d="m224 392h-72c-4.417969 0-8 3.582031-8 8v48c0 4.417969 3.582031 8 8 8h72c4.417969 0 8-3.582031 8-8v-48c0-4.417969-3.582031-8-8-8zm-8 48h-56v-32h56zm0 0" fill="url(#r)"/></svg>