<svg height="496pt" viewBox="0 0 496 496.00048" width="496pt" xmlns="http://www.w3.org/2000/svg" xmlns:xlink="http://www.w3.org/1999/xlink"><linearGradient id="a"><stop offset="0" stop-color="#003f8a"/><stop offset=".518" stop-color="#00d7df"/><stop offset="1" stop-color="#006df0"/></linearGradient><linearGradient id="b" gradientUnits="userSpaceOnUse" x1="-68.25576" x2="517.61624" xlink:href="#a" y1="556.256" y2="-29.616"/><linearGradient id="c" gradientUnits="userSpaceOnUse" x1="-104.25576" x2="481.61624" xlink:href="#a" y1="520.256" y2="-65.616"/><linearGradient id="d" gradientUnits="userSpaceOnUse" x1="-142.25576" x2="443.61624" xlink:href="#a" y1="482.256" y2="-103.616"/><linearGradient id="e" gradientUnits="userSpaceOnUse" x1="-126.25576" x2="459.61624" xlink:href="#a" y1="498.256" y2="-87.616"/><linearGradient id="f" gradientUnits="userSpaceOnUse" x1="-60.25576" x2="525.61624" xlink:href="#a" y1="564.256" y2="-21.616"/><linearGradient id="g" gradientUnits="userSpaceOnUse" x1="-4.25576" x2="581.61624" xlink:href="#a" y1="620.256" y2="34.384"/><linearGradient id="h" gradientUnits="userSpaceOnUse" x1="19.74424" x2="605.61624" xlink:href="#a" y1="644.256" y2="58.384"/><path d="m488 32h-184v-24c0-4.417969-3.582031-8-8-8h-96c-4.417969 0-8 3.582031-8 8v24h-184c-4.417969 0-8 3.582031-8 8v296c0 4.417969 3.582031 8 8 8h84.097656l-59.296875 124.558594c-1.90625 3.941406-.292969 8.683594 3.625 10.640625l32 16c1.113281.539062 2.335938.8125 3.574219.800781.886719 0 1.765625-.148438 2.601562-.441406 2.03125-.695313 3.695313-2.179688 4.621094-4.117188l70.210938-147.441406h197.132812l70.234375 147.441406c.925781 1.9375 2.589844 3.421875 4.625 4.117188.828125.292968 1.695313.441406 2.574219.441406 1.238281.011719 2.460938-.261719 3.578125-.800781l32-16c3.914063-1.957031 5.527344-6.699219 3.621094-10.640625l-59.296875-124.558594h84.097656c4.417969 0 8-3.582031 8-8v-296c0-4.417969-3.582031-8-8-8zm-280-16h80v16h-80zm-139.710938 461.191406-17.6875-8.839844 59.214844-124.351562h21.894532zm299.710938-149.191406h-56v-16h56zm77.398438 140.351562-17.6875 8.839844-63.421876-133.191406h21.894532zm34.601562-140.351562h-96v-24c0-4.417969-3.582031-8-8-8h-72c-4.417969 0-8 3.582031-8 8v24h-280v-280h464zm0 0" fill="url(#b)"/><path d="m287.273438 112c-2.21875.207031-4.246094 1.328125-5.601563 3.097656l-74.472656 96.796875-73.558594-73.550781c-1.628906-1.617188-3.867187-2.46875-6.160156-2.34375-2.296875.152344-4.414063 1.285156-5.816407 3.113281l-80 104c-1.890624 2.25-2.394531 5.359375-1.3125 8.089844 1.085938 2.734375 3.582032 4.652344 6.5 5 2.921876.34375 5.792969-.941406 7.484376-3.347656l74.449218-96.800781 73.597656 73.554687c1.632813 1.625 3.882813 2.46875 6.183594 2.316406 2.296875-.152343 4.417969-1.289062 5.816406-3.117187l74.738282-97.144532 73.597656 66.214844c1.695312 1.527344 3.957031 2.257813 6.222656 2.007813 2.265625-.246094 4.320313-1.449219 5.644532-3.300781l80-112c2.566406-3.597657 1.730468-8.59375-1.867188-11.160157-3.59375-2.570312-8.589844-1.734375-11.160156 1.863281l-74.863282 104.773438-73.34375-66.007812c-1.648437-1.503907-3.855468-2.246094-6.078124-2.054688zm0 0" fill="url(#c)"/><path d="m48 264c-4.417969 0-8 3.582031-8 8v40c0 4.417969 3.582031 8 8 8s8-3.582031 8-8v-40c0-4.417969-3.582031-8-8-8zm0 0" fill="url(#d)"/><path d="m128 168c-4.417969 0-8 3.582031-8 8v136c0 4.417969 3.582031 8 8 8s8-3.582031 8-8v-136c0-4.417969-3.582031-8-8-8zm0 0" fill="url(#e)"/><path d="m208 240c-4.417969 0-8 3.582031-8 8v64c0 4.417969 3.582031 8 8 8s8-3.582031 8-8v-64c0-4.417969-3.582031-8-8-8zm0 0" fill="url(#b)"/><path d="m288 144c-4.417969 0-8 3.582031-8 8v128c0 4.417969 3.582031 8 8 8s8-3.582031 8-8v-128c0-4.417969-3.582031-8-8-8zm0 0" fill="url(#f)"/><path d="m368 208c-4.417969 0-8 3.582031-8 8v64c0 4.417969 3.582031 8 8 8s8-3.582031 8-8v-64c0-4.417969-3.582031-8-8-8zm0 0" fill="url(#g)"/><path d="m448 112c-4.417969 0-8 3.582031-8 8v192c0 4.417969 3.582031 8 8 8s8-3.582031 8-8v-192c0-4.417969-3.582031-8-8-8zm0 0" fill="url(#h)"/></svg>