<?xml version="1.0"?>
<svg xmlns="http://www.w3.org/2000/svg" xmlns:xlink="http://www.w3.org/1999/xlink" viewBox="0 0 64 64" width="512" height="512"><linearGradient id="a" gradientUnits="userSpaceOnUse" x1="4.103" x2="73.925" y1="69.652" y2="-.17"><stop offset="0" stop-color="#003f8a"/><stop offset=".518" stop-color="#00d7df"/><stop offset="1" stop-color="#006df0"/></linearGradient><linearGradient id="b" x1="19.226" x2="89.048" xlink:href="#a" y1="84.774" y2="14.952"/><linearGradient id="c" x1="-1.774" x2="68.048" xlink:href="#a" y1="63.774" y2="-6.048"/><linearGradient id="d" x1="1.812" x2="71.635" xlink:href="#a" y1="67.361" y2="-2.461"/><path d="m40.383 22.586a1 1 0 0 0 -1.09.217l-8.49 8.49a1 1 0 0 0 0 1.414l8.49 8.49a1 1 0 0 0 1.707-.707v-4.49h8a1 1 0 0 0 1-1v-6a1 1 0 0 0 -1-1h-8v-4.49a1 1 0 0 0 -.617-.924zm7.617 7.414v4h-8a1 1 0 0 0 -1 1v3.076l-6.076-6.076 6.076-6.076v3.076a1 1 0 0 0 1 1z" fill="url(#a)"/><path d="m53 47a4 4 0 1 0 4 4 4 4 0 0 0 -4-4zm0 6a2 2 0 1 1 2-2 2 2 0 0 1 -2 2z" fill="url(#b)"/><path d="m11 47a4 4 0 1 0 4 4 4 4 0 0 0 -4-4zm0 6a2 2 0 1 1 2-2 2 2 0 0 1 -2 2z" fill="url(#c)"/><path d="m63 15h-42a1 1 0 0 0 -1 1v2h-5a1 1 0 0 0 0 2h5v4h-16v-1a3 3 0 0 1 3-3h3a1 1 0 0 0 0-2h-3a5.006 5.006 0 0 0 -5 5v2a1 1 0 0 0 1 1h1.913l-.841 10.094a5 5 0 0 0 -4.072 4.906v10a1 1 0 0 0 1 1h3.08a6.991 6.991 0 0 0 13.84 0h19.08a1 1 0 0 0 0-2h-15v-33h40v33h-2.08a6.991 6.991 0 0 0 -13.84 0h-5.08a1 1 0 0 0 0 2h5.08a6.991 6.991 0 0 0 13.84 0h3.08a1 1 0 0 0 1-1v-35a1 1 0 0 0 -1-1zm-52 41a5 5 0 1 1 5-5 5.006 5.006 0 0 1 -5 5zm9-6h-2.08a6.991 6.991 0 0 0 -13.84 0h-2.08v-9a3 3 0 0 1 3-3h15zm0-14h-13.913l.833-10h13.08zm33 20a5 5 0 1 1 5-5 5.006 5.006 0 0 1 -5 5z" fill="url(#d)"/></svg>
