<svg height="496pt" viewBox="-56 0 496 496" width="496pt" xmlns="http://www.w3.org/2000/svg" xmlns:xlink="http://www.w3.org/1999/xlink"><linearGradient id="a"><stop offset="0" stop-color="#003f8a"/><stop offset=".518" stop-color="#00d7df"/><stop offset="1" stop-color="#006df0"/></linearGradient><linearGradient id="b" gradientUnits="userSpaceOnUse" x1="-50.256" x2="443.384" xlink:href="#a" y1="510.256" y2="16.616"/><linearGradient id="c" gradientUnits="userSpaceOnUse" x1="-32.256" x2="461.384" xlink:href="#a" y1="528.256" y2="34.616"/><linearGradient id="d" gradientUnits="userSpaceOnUse" x1="-36.256" x2="457.384" xlink:href="#a" y1="524.256" y2="30.616"/><linearGradient id="e" gradientUnits="userSpaceOnUse" x1="-180.256" x2="313.384" xlink:href="#a" y1="380.256" y2="-113.384"/><path d="m344 40h-48v-32c0-4.417969-3.582031-8-8-8h-32c-4.417969 0-8 3.582031-8 8v32h-32v-32c0-4.417969-3.582031-8-8-8h-32c-4.417969 0-8 3.582031-8 8v32h-32v-32c0-4.417969-3.582031-8-8-8h-32c-4.417969 0-8 3.582031-8 8v32h-48c-22.082031.027344-39.9726562 17.917969-40 40v376c.0273438 22.082031 17.917969 39.972656 40 40h304c22.082031-.027344 39.972656-17.917969 40-40v-376c-.027344-22.082031-17.917969-39.972656-40-40zm-80-24h16v64h-16zm-80 0h16v64h-16zm-80 0h16v64h-16zm-88 64c0-13.253906 10.746094-24 24-24h48v32c0 4.417969 3.582031 8 8 8h32c4.417969 0 8-3.582031 8-8v-32h32v32c0 4.417969 3.582031 8 8 8h32c4.417969 0 8-3.582031 8-8v-32h32v32c0 4.417969 3.582031 8 8 8h32c4.417969 0 8-3.582031 8-8v-32h48c13.253906 0 24 10.746094 24 24v32h-352zm352 376c0 13.253906-10.746094 24-24 24h-304c-13.253906 0-24-10.746094-24-24v-328h352zm0 0" fill="url(#b)"/><path d="m192 440c75.109375 0 136-60.890625 136-136s-60.890625-136-136-136-136 60.890625-136 136c.082031 75.074219 60.925781 135.917969 136 136zm0-256c66.273438 0 120 53.726562 120 120s-53.726562 120-120 120-120-53.726562-120-120c.074219-66.242188 53.757812-119.925781 120-120zm0 0" fill="url(#c)"/><path d="m98.34375 325.65625 64 64c3.125 3.121094 8.1875 3.121094 11.3125 0l120-120c3.03125-3.140625 2.988281-8.128906-.097656-11.214844-3.085938-3.085937-8.074219-3.128906-11.214844-.097656l-114.34375 114.34375-58.34375-58.34375c-3.140625-3.03125-8.128906-2.988281-11.214844.097656-3.085937 3.085938-3.128906 8.074219-.097656 11.214844zm0 0" fill="url(#d)"/><g fill="url(#e)"><path d="m32 152h48c4.417969 0 8-3.582031 8-8s-3.582031-8-8-8h-48c-4.417969 0-8 3.582031-8 8s3.582031 8 8 8zm0 0"/><path d="m28.960938 175.359375c.949218.445313 1.988281.664063 3.039062.640625 2.128906.023438 4.175781-.8125 5.679688-2.320312 1.507812-1.503907 2.34375-3.550782 2.320312-5.679688-.015625-.535156-.070312-1.070312-.167969-1.601562-.082031-.5-.238281-.988282-.472656-1.4375-.179687-.511719-.421875-.996094-.71875-1.449219l-.960937-1.191407c-1.914063-1.886718-4.644532-2.695312-7.28125-2.160156-.5.085938-.984376.25-1.4375.480469-.511719.175781-1 .417969-1.449219.71875-.863281.554687-1.597657 1.289063-2.152344 2.152344-.300781.449219-.542969.9375-.71875 1.449219-.230469.453124-.394531.9375-.480469 1.4375-.089844.53125-.144531 1.066406-.160156 1.601562-.019531 2.128906.816406 4.175781 2.320312 5.679688.777344.707031 1.671876 1.273437 2.640626 1.679687zm0 0"/></g></svg>